<svg viewBox="0 0 1122 147" xmlns="http://www.w3.org/2000/svg" xmlns:xlink="http://www.w3.org/1999/xlink">
 <!-- Generated by Pixelmator Pro 2.0.6 -->
 <path id="nombre" d="M278.898 144.633 C276.453 144.616 273.913 144.475 272.197 144.232 269.452 143.842 264.96 142.863 262.216 142.055 259.471 141.247 255.382 139.412 253.131 137.977 250.879 136.542 247.372 133.472 245.337 131.154 243.302 128.836 240.393 124.371 238.871 121.232 237.35 118.092 234.829 112.413 233.27 108.613 231.712 104.813 229.221 99.784 227.736 97.436 226.034 94.745 223.881 92.683 221.905 91.854 220.182 91.131 216.307 90.545 213.296 90.532 210.695 90.522 207.822 90.36 207.821 90.525 207.816 91.935 207.813 96.544 207.801 105.957 L207.781 121.387 189.174 121.363 189.232 76.349 189.29 31.335 209.712 31.528 C216.858 31.578 221.659 31.342 225.144 31.548 230.829 31.883 232.986 33.084 236.033 34.286 239.259 35.559 242.388 37.883 244.711 40.212 247.417 42.925 249.065 45.667 250.23 49.395 251.162 52.38 251.85 57.177 251.8 60.338 251.75 63.433 250.991 67.838 250.113 70.127 249.236 72.416 247.227 75.63 245.649 77.268 244.071 78.905 241.836 80.888 240.682 81.671 238.585 83.097 238.586 83.096 240.999 85.699 242.327 87.131 244.392 90.235 245.588 92.598 246.784 94.96 248.629 99.252 249.691 102.134 250.753 105.017 252.784 109.707 254.205 112.558 255.625 115.409 258.113 119.254 259.733 121.104 261.353 122.954 264.724 125.423 267.222 126.591 271.172 128.436 272.826 129.65 282.2 129.653 292.007 129.656 292.252 128.603 292.182 131.48 292.144 133.071 292.173 138.392 292.171 140.558 292.167 143.465 291.727 142.545 290.484 143.209 289.557 143.703 286.187 144.294 282.994 144.523 281.796 144.609 280.364 144.643 278.898 144.633 Z M779.655 123.963 C774.855 123.956 768.257 122.749 760.82 120.22 755.657 122.493 749.655 123.684 743.175 123.675 717.735 123.642 701.679 105.382 701.716 76.702 701.753 48.622 717.856 30.763 743.295 30.796 768.735 30.829 784.792 48.729 784.755 76.809 784.739 89.409 781.606 99.965 775.956 107.878 780.275 107.883 784.117 107.168 788.919 105.975 L787.936 123.134 C786.255 123.491 782.775 123.967 779.655 123.963 Z M834.615 123.794 C810.975 123.763 798.753 110.787 798.785 85.827 L798.835 46.708 C798.84 42.988 798.728 37.108 798.374 32.307 L817.333 32.332 C816.966 37.131 816.84 43.011 816.835 46.731 L816.782 88.011 C816.765 101.451 822.875 108.419 834.635 108.434 846.394 108.449 852.524 101.497 852.542 88.057 L852.595 46.778 C852.6 43.058 852.487 37.177 852.133 32.377 L870.014 32.4 C869.648 37.199 869.52 43.08 869.515 46.8 L869.464 85.919 C869.432 110.879 857.415 123.823 834.615 123.794 Z M98.258 121.401 C98.624 116.842 98.752 110.721 98.757 107.001 L98.836 45.802 C98.841 41.842 98.728 36.202 98.374 31.401 L127.175 31.439 C155.855 31.476 171.075 47.215 171.037 76.015 170.999 105.415 155.738 121.476 127.058 121.438 L98.258 121.401 Z M304.138 121.668 C306.063 117.83 307.989 112.912 309.193 109.434 L331.842 41.063 C332.926 37.944 333.651 34.826 334.015 31.706 L356.935 31.736 382.514 109.529 C383.709 113.01 385.622 117.933 387.537 121.776 L365.937 121.748 C365.343 117.547 364.268 113.345 362.953 109.504 L362.117 106.862 328.517 106.818 327.674 109.458 C326.349 113.296 325.263 117.495 324.658 121.694 L304.138 121.668 Z M397.138 121.788 C397.504 117.228 397.631 111.108 397.635 107.388 L397.715 46.189 C397.72 42.469 397.609 36.469 397.255 31.788 L415.974 31.812 451.777 91.259 451.836 46.259 C451.841 42.539 451.728 36.419 451.374 31.858 L469.134 31.881 C468.768 36.441 468.639 42.561 468.635 46.281 L468.537 121.88 452.216 121.859 414.498 59.65 414.436 107.41 C414.431 111.13 414.544 117.251 414.898 121.811 L397.138 121.788 Z M520.337 121.947 C520.703 117.388 520.832 111.268 520.837 107.548 L520.916 46.348 C520.921 42.628 520.808 36.628 520.454 31.947 L542.175 31.976 564.411 95.364 585.854 32.032 607.934 32.061 C607.568 36.74 607.44 42.74 607.435 46.46 L607.356 107.66 C607.351 111.38 607.464 117.5 607.818 122.061 L588.738 122.036 C589.104 117.476 589.23 111.356 589.235 107.636 L589.29 65.037 569.537 122.011 558.617 121.997 537.693 63.169 537.635 107.569 C537.631 111.289 537.743 117.41 538.097 121.97 L520.337 121.947 Z M617.417 122.073 C619.342 118.236 621.268 113.318 622.472 109.839 L645.121 41.468 C646.206 38.35 646.93 35.231 647.294 32.112 L670.214 32.141 695.793 109.934 C696.988 113.416 698.903 118.338 700.818 122.181 L679.216 122.153 C678.622 117.952 677.547 113.751 676.232 109.909 L675.396 107.267 641.796 107.224 640.953 109.863 C639.628 113.702 638.542 117.9 637.937 122.1 L617.417 122.073 Z M885.738 122.42 C886.103 117.861 886.23 111.741 886.235 108.021 L886.314 46.821 C886.319 43.101 886.208 37.221 885.854 32.42 L939.614 32.49 940.674 47.851 C936.594 47.605 930.713 47.359 927.233 47.355 L904.313 47.325 904.285 69.405 925.646 69.433 C928.286 69.436 931.765 69.321 934.285 69.204 L935.346 84.084 C932.826 83.961 928.267 83.835 925.627 83.831 L904.266 83.804 904.235 107.563 927.757 107.594 C931.597 107.599 936.756 107.487 941.197 107.133 L940.097 122.491 885.738 122.42 Z M953.898 122.508 C954.264 117.949 954.39 111.829 954.395 108.109 L954.474 46.91 C954.479 42.95 954.368 37.309 954.014 32.509 L982.813 32.546 C1011.493 32.583 1026.712 48.322 1026.675 77.122 1026.637 106.522 1011.376 122.583 982.696 122.546 L953.898 122.508 Z M1026.857 122.603 C1028.781 118.765 1030.709 113.848 1031.913 110.369 L1054.561 41.998 C1055.645 38.879 1056.369 35.761 1056.733 32.641 L1079.653 32.671 1105.232 110.464 C1106.427 113.946 1108.342 118.868 1110.257 122.711 L1088.657 122.683 C1088.063 118.482 1086.988 114.28 1085.673 110.439 L1084.837 107.797 1051.235 107.754 1050.392 110.393 C1049.067 114.231 1047.982 118.43 1047.376 122.629 L1026.857 122.603 Z M274.946 114.63 L275.043 39.63 292.043 39.652 291.946 114.652 274.946 114.63 Z M116.757 106.544 L127.078 106.558 C144.838 106.581 152.889 96.991 152.915 76.591 152.942 56.191 144.916 46.342 127.156 46.319 L116.835 46.306 116.757 106.544 Z M736.116 107.346 C738.402 102.909 743.085 100.275 748.965 100.282 752.205 100.287 755.085 100.891 758.203 102.335 763.61 97.062 766.621 88.426 766.635 77.506 766.66 58.306 757.555 46.293 743.275 46.275 728.995 46.256 719.859 58.246 719.835 77.446 719.814 93.046 725.921 103.973 736.116 107.346 Z M972.395 107.652 L982.716 107.665 C1000.476 107.688 1008.529 98.098 1008.555 77.698 1008.582 57.298 1000.554 47.45 982.794 47.427 L972.473 47.413 972.395 107.652 Z M333.216 91.945 L357.456 91.977 345.511 49.84 333.216 91.945 Z M646.495 92.351 L670.735 92.382 658.79 50.246 646.495 92.351 Z M1055.936 92.881 L1080.176 92.912 1068.231 50.776 1055.936 92.881 Z M207.841 75.096 L216.238 75.091 C223.244 75.088 225.234 74.749 228.266 73.05 230.281 71.92 232.631 69.607 233.542 67.854 234.71 65.606 235.085 63.304 234.837 59.888 234.626 56.971 233.774 54.119 232.671 52.624 231.672 51.27 229.669 49.554 228.217 48.81 226.593 47.977 222.173 47.327 216.727 47.121 L207.878 46.787 207.841 75.096 Z M339.3 26.912 L342.432 17.438 C343.636 13.719 345.445 7.72 346.651 3.162 L367.411 3.189 C364.645 7.865 361.999 12.663 358.872 18.539 L354.419 26.932 339.3 26.912 Z M7.26 121.321 L57.19 31.348 81.275 31.379 81.159 121.233 63.558 121.211 63.585 100.831 36.721 100.797 26.653 121.279 7.26 121.321 Z M44.873 86.986 L63.4 87.01 63.443 53.662 44.873 86.986 Z" fill="#ffffff" fill-opacity="1" stroke="none"/>
</svg>
