<svg viewBox="0 0 601 264" xmlns="http://www.w3.org/2000/svg" xmlns:xlink="http://www.w3.org/1999/xlink">
 <!-- Generated by Pixelmator Pro 2.0.6 -->
 <path id="nombre" d="M266.654 258.963 C261.854 258.957 255.256 257.747 247.819 255.218 242.656 257.491 236.656 258.684 230.176 258.676 204.736 258.643 188.678 240.382 188.715 211.702 188.752 183.622 204.856 165.764 230.296 165.797 255.736 165.83 271.792 183.73 271.756 211.809 271.74 224.409 268.606 234.965 262.956 242.878 267.276 242.884 271.116 242.169 275.918 240.975 L274.936 258.134 C273.256 258.492 269.774 258.967 266.654 258.963 Z M321.615 258.794 C297.975 258.763 285.751 245.787 285.784 220.828 L285.834 181.708 C285.839 177.988 285.728 172.108 285.374 167.307 L304.333 167.332 C303.967 172.131 303.839 178.012 303.834 181.732 L303.781 223.011 C303.763 236.451 309.875 243.419 321.635 243.435 333.395 243.45 339.525 236.497 339.542 223.057 L339.596 181.778 C339.601 178.058 339.488 172.177 339.134 167.377 L357.013 167.4 C356.647 172.2 356.521 178.08 356.516 181.8 L356.465 220.919 C356.433 245.879 344.415 258.823 321.615 258.794 Z M7.338 256.948 C7.704 252.388 7.83 246.268 7.835 242.548 L7.914 181.349 C7.919 177.629 7.809 171.628 7.455 166.948 L29.173 166.976 51.412 230.364 72.853 167.032 94.933 167.061 C94.567 171.74 94.441 177.741 94.436 181.461 L94.357 242.66 C94.352 246.38 94.462 252.5 94.817 257.061 L75.736 257.036 C76.102 252.477 76.231 246.356 76.236 242.636 L76.291 200.037 56.537 257.011 45.617 256.997 24.693 198.169 24.636 242.57 C24.631 246.29 24.744 252.41 25.098 256.971 L7.338 256.948 Z M104.418 257.073 C106.343 253.236 108.268 248.318 109.473 244.84 L132.122 176.469 C133.206 173.35 133.93 170.231 134.294 167.112 L157.214 167.142 182.793 244.935 C183.989 248.416 185.901 253.339 187.816 257.181 L166.217 257.153 C165.622 252.953 164.548 248.751 163.233 244.909 L162.396 242.268 128.797 242.224 127.953 244.864 C126.629 248.702 125.543 252.901 124.938 257.1 L104.418 257.073 Z M372.736 257.421 C373.102 252.861 373.231 246.741 373.235 243.021 L373.315 181.822 C373.319 178.102 373.206 172.221 372.853 167.421 L426.614 167.49 427.673 182.851 C423.593 182.606 417.714 182.358 414.234 182.353 L391.314 182.323 391.285 204.404 412.645 204.431 C415.285 204.435 418.765 204.319 421.286 204.202 L422.346 219.084 C419.827 218.961 415.266 218.835 412.626 218.832 L391.267 218.804 391.236 242.564 414.755 242.594 C418.595 242.599 423.757 242.487 428.197 242.133 L427.098 257.491 372.736 257.421 Z M440.896 257.509 C441.262 252.949 441.391 246.829 441.395 243.109 L441.475 181.91 C441.48 177.95 441.367 172.309 441.013 167.509 L469.814 167.546 C498.493 167.583 513.713 183.323 513.676 212.122 513.638 241.522 498.377 257.583 469.697 257.546 L440.896 257.509 Z M513.857 257.603 C515.782 253.766 517.708 248.848 518.912 245.369 L541.561 176.998 C542.645 173.88 543.369 170.761 543.733 167.642 L566.653 167.671 592.232 245.464 C593.428 248.946 595.343 253.869 597.258 257.711 L575.656 257.683 C575.062 253.482 573.987 249.281 572.672 245.439 L571.835 242.797 538.236 242.754 537.393 245.393 C536.068 249.232 534.982 253.431 534.377 257.63 L513.857 257.603 Z M223.117 242.346 C225.403 237.909 230.086 235.275 235.966 235.283 239.206 235.287 242.085 235.892 245.204 237.336 250.61 232.063 253.62 223.427 253.634 212.507 253.659 193.307 244.556 181.294 230.276 181.275 215.996 181.257 206.86 193.246 206.835 212.446 206.815 228.046 212.921 238.973 223.117 242.346 Z M459.396 242.652 L469.716 242.665 C487.476 242.688 495.53 233.099 495.556 212.699 495.582 192.299 487.554 182.448 469.794 182.425 L459.474 182.412 459.396 242.652 Z M133.496 227.351 L157.736 227.383 145.79 185.246 133.496 227.351 Z M542.935 227.881 L567.175 227.912 555.229 185.776 542.935 227.881 Z M278.898 144.633 C276.453 144.616 273.913 144.475 272.197 144.232 269.452 143.842 264.96 142.863 262.216 142.055 259.471 141.247 255.382 139.411 253.131 137.977 250.879 136.542 247.372 133.472 245.337 131.154 243.302 128.836 240.393 124.371 238.871 121.232 237.35 118.092 234.829 112.413 233.27 108.613 231.712 104.813 229.221 99.783 227.736 97.436 226.034 94.745 223.881 92.683 221.905 91.854 220.182 91.131 216.307 90.545 213.296 90.532 210.695 90.522 207.822 90.36 207.821 90.525 207.816 91.935 207.813 96.544 207.801 105.957 L207.781 121.387 189.174 121.363 189.232 76.349 189.29 31.335 209.712 31.528 C216.858 31.578 221.659 31.342 225.144 31.548 230.829 31.883 232.986 33.084 236.033 34.286 239.259 35.559 242.388 37.883 244.711 40.212 247.417 42.925 249.065 45.667 250.23 49.395 251.162 52.38 251.85 57.177 251.8 60.338 251.75 63.433 250.991 67.838 250.113 70.127 249.236 72.416 247.227 75.63 245.649 77.268 244.071 78.905 241.836 80.888 240.682 81.671 238.585 83.096 238.586 83.096 240.999 85.699 242.327 87.131 244.392 90.235 245.588 92.598 246.784 94.96 248.629 99.252 249.691 102.134 250.753 105.017 252.784 109.707 254.205 112.558 255.625 115.409 258.113 119.254 259.733 121.104 261.353 122.954 264.724 125.423 267.222 126.591 271.172 128.436 272.826 129.65 282.2 129.653 292.007 129.656 292.252 128.603 292.182 131.48 292.144 133.071 292.173 138.392 292.171 140.558 292.167 143.465 291.727 142.545 290.484 143.209 289.557 143.703 286.187 144.294 282.994 144.523 281.796 144.609 280.364 144.643 278.898 144.633 Z M7.26 121.321 L57.191 31.348 81.275 31.379 81.158 121.233 63.559 121.21 63.585 100.831 36.722 100.796 26.652 121.279 7.26 121.321 Z M98.258 121.401 C98.624 116.842 98.752 110.721 98.757 107.001 L98.836 45.802 C98.841 41.842 98.728 36.202 98.374 31.401 L127.175 31.439 C155.855 31.476 171.075 47.215 171.037 76.015 170.999 105.415 155.738 121.476 127.058 121.438 L98.258 121.401 Z M304.138 121.668 C306.063 117.83 307.989 112.912 309.193 109.434 L331.842 41.063 C332.926 37.944 333.651 34.826 334.015 31.706 L356.935 31.736 382.514 109.529 C383.709 113.01 385.622 117.933 387.537 121.776 L365.937 121.748 C365.343 117.547 364.268 113.345 362.953 109.503 L362.117 106.862 328.517 106.818 327.674 109.458 C326.349 113.296 325.263 117.495 324.658 121.694 L304.138 121.668 Z M397.138 121.788 C397.504 117.228 397.631 111.108 397.635 107.388 L397.715 46.189 C397.72 42.469 397.609 36.469 397.255 31.788 L415.974 31.812 451.777 91.259 451.836 46.259 C451.841 42.539 451.728 36.419 451.374 31.858 L469.134 31.881 C468.768 36.441 468.639 42.561 468.635 46.281 L468.537 121.88 452.216 121.859 414.498 59.65 414.436 107.41 C414.431 111.13 414.544 117.25 414.898 121.811 L397.138 121.788 Z M274.946 114.63 L275.043 39.63 292.043 39.652 291.946 114.652 274.946 114.63 Z M116.757 106.544 L127.078 106.558 C144.838 106.581 152.889 96.991 152.915 76.591 152.942 56.191 144.916 46.342 127.156 46.319 L116.835 46.306 116.757 106.544 Z M333.216 91.945 L357.456 91.977 345.511 49.84 333.216 91.945 Z M44.873 86.986 L63.4 87.01 63.443 53.663 44.873 86.986 Z M207.841 75.096 L216.238 75.091 C223.244 75.088 225.234 74.749 228.266 73.05 230.281 71.92 232.631 69.607 233.542 67.854 234.71 65.606 235.085 63.303 234.837 59.888 234.626 56.971 233.774 54.118 232.671 52.624 231.672 51.27 229.669 49.554 228.217 48.81 226.593 47.977 222.173 47.327 216.727 47.121 L207.878 46.787 207.841 75.096 Z M339.3 26.912 L342.432 17.438 C343.636 13.719 345.445 7.72 346.651 3.162 L367.411 3.189 C364.645 7.865 361.999 12.663 358.872 18.539 L354.419 26.932 339.3 26.912 Z" fill="#ffffff" fill-opacity="1" stroke="none"/>
</svg>
